<svg width="150px" height="110px" version="1.1" viewBox="0 0 150 110" xmlns="http://www.w3.org/2000/svg"><path d="m7.3848 0c-2.9843-0.017089-5.6935 1.1312-6.8555 3.4492-1.8591 3.7088 1.5184 9.2412 4.834 12.824 2.0018 2.1632 3.047 5.6792 3.666 12.451 0.19594 2.1435 0.17129 5.7525 0.48438 7.877 1.5192 10.308 4.5002 17.972 10.838 24.375 4.8105 4.8603 10.549 7.6539 17.023 8.5996 4.9939 0.72946 10.044 0.37193 16.166-0.81055 1.897-0.36638 3.5569-0.73463 6.5156-1.4238 8.8367-2.0584 9.9001-3.2874 13.957-1.9004 4.057 1.387 5.1467 7.6864 6.3164 10.875 1.1697 3.1886 7.3121 16.014 10.371 19.592 4.2718 4.9968 8.4292 9.1045 14.189 11.512 12.568 5.2521 26.029 2.2293 35.426-6.752 9.1909-8.7844 11.429-21.877 8.4394-32.65-2.9897-10.774-8.9881-15.027-19.607-16.166-8.7554-0.93893-15.632 0.7592-21.811 5.9492-3.9025 3.2783-5.6029 6.8474-3.5176 9.6152s7.522 1.1174 13.139-1.9746c3.5376-1.9475 7.1657-1.9472 10.775-1.0293 3.6097 0.91788 6.1133 3.9365 6.1133 9.1719 0 5.2354-0.8947 11.206-5.3008 14.996-4.4061 3.7903-11.001 4.1439-16.52 1.8379-4.6597-1.9473-7.88-6.3577-11.678-15.455-0.5784-1.3855-0.92868-2.3242-2.5078-6.1973-1.5791-3.873-3.8543-8.8912-6.0508-12.049-3.3143-4.7647-7.5025-8.0129-12.9-9.2441-3.8001-0.86679-7.7635-0.87732-12.275-0.25781-3.0135 0.41377-5.0492 0.84602-10.758 2.1758-2.7407 0.63842-4.228 0.9683-5.8281 1.2773-8.4743 1.6367-12.942 0.98383-16.533-2.6445-3.0612-3.0929-4.705-7.3176-5.7051-14.104-0.26277-1.783-0.39898-2.979-0.79688-6.7324-0.75659-7.1371-1.3363-9.357-2.7969-13.26-1.778-4.7509-5.757-9.8349-11.418-12.639-1.7135-0.84867-3.604-1.2788-5.3945-1.2891z" fill="#8dcdea"></path><path d="m7.7852 3c-1.6442-0.013496-3.0691 0.55853-3.5059 1.4473-0.69881 1.422-0.18067 3.9305 2.6152 6.3555 2.7959 2.425 5.0164 5.4703 6.1875 16.586 0.42034 3.9897 0.25425 6.0155 0.55664 8.0801 1.4083 9.6155 4.103 16.586 9.7402 22.316 7.7366 7.865 16.874 9.2088 29.627 6.7305 1.8339-0.35639 3.4583-0.71768 6.3711-1.4004 9.4969-2.2259 11.596-3.1765 16.506-1.916 4.91 1.2605 5.2149 3.9541 8.7324 12.686-0.2071-0.51408 1.9377 4.871 2.5625 6.377 5.1457 12.403 10.334 19.552 19.477 23.396 11.061 4.6508 22.104 2.2029 30.615-5.8184 8.5117-8.0213 9.9119-19.361 7.9434-28.141s-7.7264-13.758-16.934-14.752c-7.699-0.83074-14.096 1.0727-19.152 5.7461-2.1156 1.9553-2.5872 3.1708-2.0449 3.8066 0.54225 0.63586 2.8178 0.30448 6.1406-1.752 3.3228-2.0564 6.7194-3.6168 15.057-2.4316 8.3372 1.1852 8.9902 6.0123 9.9746 10.738 0.9844 4.7259-0.1166 14.468-5.2598 19.414-5.3717 5.166-15.231 6.3665-22.262 3.4102-5.8832-2.4738-9.6405-7.6516-13.807-17.693-0.59117-1.4249-2.7044-6.7266-2.5234-6.2773-2.1323-5.293-3.6534-8.4836-5.6348-11.35-2.795-4.0428-6.2013-6.7011-10.533-7.6953-5.6928-1.3065-10.007-0.70915-21.258 1.9277-2.7882 0.6535-4.3124 0.993-5.9766 1.3164-9.6429 1.8739-15.387 1.0294-20.109-3.7715-3.7644-3.8269-5.6931-8.8206-6.8047-16.41-0.27363-1.8682-0.41622-3.1-0.82031-6.9355-0.7242-6.8738-1.6425-9.7496-3.1074-13.268-2.1202-5.0918-4.6849-7.6871-9.3418-10.008-0.97943-0.4881-2.0447-0.70675-3.0312-0.71484z" fill='#fff'></path></svg>